<svg xmlns="http://www.w3.org/2000/svg" viewBox="0 0 1024 1024">
<rect width="1024" height="1024" rx="180" fill="#1a1216"/>
<g transform="translate(260 760)">
<path d="M 0 0 Q 220 -140 440 -280 Q 520 -340 560 -400" stroke="#a8b89c" stroke-width="14" fill="none" stroke-linecap="round"/>
<path d="M 120 -100 Q 100 -60 80 -20" stroke="#a8b89c" stroke-width="10" fill="none" stroke-linecap="round" opacity="0.7"/>
</g>
<g transform="translate(512 540)">
<ellipse cx="0" cy="0" rx="98" ry="128" fill="#d4a5a5"/>
<ellipse cx="-30" cy="-40" rx="32" ry="46" fill="#e3bcbc" opacity="0.7"/>
<ellipse cx="20" cy="50" rx="50" ry="40" fill="#a87a7a" opacity="0.35"/>
</g>
<g transform="translate(720 410) rotate(40)">
<path d="M 0 0 Q 60 -40 110 -20 Q 60 30 0 0 Z" fill="#a8b89c"/>
</g>
<g transform="translate(360 660) rotate(190)">
<path d="M 0 0 Q 60 -40 110 -20 Q 60 30 0 0 Z" fill="#a8b89c"/>
</g>
</svg>